<svg width="24" height="24" viewBox="0 0 24 24" fill="none" xmlns="http://www.w3.org/2000/svg">
<path d="M16.9 12.9996C16.7191 13.8845 16.3019 14.7039 15.6927 15.3707C15.0835 16.0376 14.3051 16.5269 13.4401 16.7868C12.5751 17.0467 11.6558 17.0675 10.78 16.8469C9.90414 16.6263 9.10441 16.1725 8.46575 15.5339C7.82709 14.8952 7.37335 14.0955 7.15273 13.2196C6.93212 12.3438 6.95286 11.4245 7.21277 10.5595C7.47268 9.69451 7.96204 8.91607 8.62887 8.30687C9.2957 7.69768 10.1151 7.28048 11 7.09961" stroke="#636299" stroke-width="2" stroke-linecap="round" stroke-linejoin="round"/>
<path d="M12.33 3H12C10.22 3 8.47991 3.52784 6.99987 4.51677C5.51983 5.50571 4.36628 6.91131 3.68509 8.55585C3.0039 10.2004 2.82567 12.01 3.17294 13.7558C3.5202 15.5016 4.37737 17.1053 5.63604 18.364C6.89472 19.6226 8.49836 20.4798 10.2442 20.8271C11.99 21.1743 13.7996 20.9961 15.4442 20.3149C17.0887 19.6337 18.4943 18.4802 19.4832 17.0001C20.4722 15.5201 21 13.78 21 12C21 11.89 21 11.78 21 11.67M15 9L12.5 11.5L15 9ZM15 6V9H18L21 6H18V3L15 6Z" stroke="#636299" stroke-width="2" stroke-linecap="round" stroke-linejoin="round"/>
</svg>
