<svg width="57" height="57" viewBox="0 0 57 57" fill="none" xmlns="http://www.w3.org/2000/svg">
<circle cx="28.7649" cy="28.7669" r="23.012" fill="#F0B90B"/>
<path fill-rule="evenodd" clip-rule="evenodd" d="M-2.28882e-05 28.3362C-2.28882e-05 43.986 12.6948 56.6724 28.355 56.6724C44.0151 56.6724 56.7101 43.986 56.7101 28.3362C56.7101 12.6865 44.0151 -3.05176e-05 28.355 -3.05176e-05C12.6948 -3.05176e-05 -2.28882e-05 12.6865 -2.28882e-05 28.3362ZM36.39 39.6125H41.893C43.0493 39.6125 43.6205 39.6125 43.9687 39.3899C44.3449 39.1462 44.5748 38.7425 44.6026 38.2969C44.6235 37.8863 44.3379 37.385 43.7667 36.3826L30.1793 12.4488C29.6012 11.4325 29.3086 10.9243 28.9395 10.7364C28.5424 10.5345 28.0687 10.5345 27.6717 10.7364C27.3025 10.9243 27.0099 11.4325 26.4318 12.4488L23.6385 17.3216L23.6243 17.3465C22.9998 18.4368 22.6832 18.9897 22.5449 19.57C22.3917 20.2035 22.3917 20.8718 22.5449 21.5052C22.6842 22.0899 22.9977 22.6469 23.6316 23.7537L30.7687 36.3617L30.7871 36.394C31.4157 37.4933 31.7343 38.0505 32.1758 38.4708C32.6564 38.9304 33.2346 39.2643 33.8684 39.4526C34.4466 39.6125 35.0944 39.6125 36.39 39.6125ZM22.4934 39.6125H14.6083C13.445 39.6125 12.8598 39.6125 12.5113 39.3831C12.1353 39.1394 11.8985 38.7285 11.8774 38.2833C11.8574 37.886 12.1368 37.4041 12.6842 36.46C12.7031 36.4278 12.722 36.3951 12.7412 36.3618L16.6909 29.6096L16.7359 29.5336C17.2909 28.5957 17.571 28.122 17.9309 27.9389C18.3277 27.737 18.7947 27.737 19.1916 27.9389C19.5538 28.1269 19.8464 28.6211 20.4245 29.6165L24.3602 36.3688L24.3737 36.3921C24.9498 37.3859 25.2377 37.8826 25.2169 38.2901C25.1891 38.7357 24.9592 39.1462 24.5831 39.3899C24.2417 39.6125 23.6566 39.6125 22.4934 39.6125Z" fill="#F0B90B"/>
<path d="M29.2681 12.4844L33.2598 16.5444L23.2085 26.5274L19.2168 22.5628L29.2681 12.4844Z" fill="white"/>
<path fill-rule="evenodd" clip-rule="evenodd" d="M29.1567 12.4844L33.2598 16.6575L23.3218 26.5274L19.2168 22.4505L29.1567 12.4844ZM19.7408 22.4493L23.3218 26.0057L32.7376 16.6544L29.1548 13.0104L19.7408 22.4493Z" fill="white"/>
<path d="M35.2947 18.5029L39.2782 22.563L23.2003 38.5643L19.2168 34.5998L35.2947 18.5029Z" fill="white"/>
<path fill-rule="evenodd" clip-rule="evenodd" d="M35.1373 18.5029L39.2782 22.7231L23.3601 38.5643L19.2168 34.4411L35.1373 18.5029ZM19.7461 34.4403L23.3601 38.0368L38.7512 22.72L35.1349 19.0345L19.7461 34.4403Z" fill="white"/>
<path d="M17.2105 24.5207L21.2228 28.5807L17.2105 32.5452L13.1982 28.5807L17.2105 24.5207Z" fill="white"/>
<path fill-rule="evenodd" clip-rule="evenodd" d="M17.2105 24.5207L21.2228 28.5807L17.2105 32.5452L13.1982 28.5807L17.2105 24.5207ZM13.7087 28.5777L17.2105 32.0378L20.7123 28.5777L17.2105 25.0342L13.7087 28.5777Z" fill="white"/>
<path d="M41.3133 24.5207L45.2968 28.5807L29.2188 44.5821L25.2354 40.6175L41.3133 24.5207Z" fill="white"/>
<path fill-rule="evenodd" clip-rule="evenodd" d="M41.1558 24.5207L45.2968 28.7409L29.3786 44.5821L25.2354 40.4588L41.1558 24.5207ZM25.7647 40.458L29.3786 44.0545L44.7698 28.7377L41.1535 25.0522L25.7647 40.458Z" fill="white"/>
</svg>
