<svg width="15" height="15" viewBox="0 0 15 15" fill="none" xmlns="http://www.w3.org/2000/svg">
<path d="M1 1V0.277778C0.601128 0.277778 0.277778 0.601128 0.277778 1L1 1ZM12.0449 9.15605L11.3869 8.85845C11.263 9.1323 11.3217 9.45422 11.5342 9.66674L12.0449 9.15605ZM14 11.1111L14.5107 11.6218C14.7927 11.3398 14.7927 10.8825 14.5107 10.6004L14 11.1111ZM11.1111 14L10.6004 14.5107C10.7359 14.6461 10.9196 14.7222 11.1111 14.7222C11.3027 14.7222 11.4864 14.6461 11.6218 14.5107L11.1111 14ZM9.15605 12.0449L9.66674 11.5342C9.45422 11.3217 9.1323 11.263 8.85845 11.3869L9.15605 12.0449ZM6.77778 0.277778H1V1.72222H6.77778V0.277778ZM13.2778 6.77778C13.2778 3.18793 10.3676 0.277778 6.77778 0.277778V1.72222C9.56988 1.72222 11.8333 3.98567 11.8333 6.77778H13.2778ZM12.703 9.45365C13.0725 8.63667 13.2778 7.73022 13.2778 6.77778H11.8333C11.8333 7.52093 11.6734 8.22479 11.3869 8.85845L12.703 9.45365ZM11.5342 9.66674L13.4893 11.6218L14.5107 10.6004L12.5556 8.64536L11.5342 9.66674ZM13.4893 10.6004L10.6004 13.4893L11.6218 14.5107L14.5107 11.6218L13.4893 10.6004ZM11.6218 13.4893L9.66674 11.5342L8.64536 12.5556L10.6004 14.5107L11.6218 13.4893ZM6.77778 13.2778C7.73022 13.2778 8.63667 13.0725 9.45365 12.703L8.85845 11.3869C8.22479 11.6734 7.52093 11.8333 6.77778 11.8333V13.2778ZM0.277778 6.77778C0.277778 10.3676 3.18793 13.2778 6.77778 13.2778V11.8333C3.98567 11.8333 1.72222 9.56989 1.72222 6.77778H0.277778ZM0.277778 1V6.77778H1.72222V1H0.277778Z" fill="#636299"/>
<path d="M1 1L6.77778 6.77778" stroke="#636299" stroke-width="1.44444" stroke-linecap="round" stroke-linejoin="round"/>
</svg>
