<svg width="27" height="27" viewBox="0 0 27 27" fill="none" xmlns="http://www.w3.org/2000/svg">
<path d="M7.37205 5.81778C6.94281 5.38854 6.24688 5.38854 5.81764 5.81778C5.3884 6.24702 5.3884 6.94296 5.81764 7.3722L11.6352 13.1898L5.81754 19.0074C5.3883 19.4367 5.3883 20.1326 5.81754 20.5619C6.24678 20.9911 6.94271 20.9911 7.37195 20.5619L13.1896 14.7442L19.0073 20.5619C19.4365 20.9911 20.1325 20.9911 20.5617 20.5619C20.991 20.1326 20.991 19.4367 20.5617 19.0074L14.744 13.1898L20.5616 7.3722C20.9908 6.94296 20.9908 6.24702 20.5616 5.81778C20.1324 5.38854 19.4364 5.38854 19.0072 5.81778L13.1896 11.6354L7.37205 5.81778Z" fill="#808D9E"/>
</svg>
