<svg width="552" height="397" viewBox="0 0 552 397" fill="none" xmlns="http://www.w3.org/2000/svg">
<g clip-path="url(#clip0_123_2077)">
<path d="M205.75 132.953L180.539 107.565L203.106 85.1557L228.317 110.544L205.75 132.953ZM146.292 162.22L136.215 192.385L172.05 204.356L182.127 174.191L146.292 162.22ZM301.117 75.072L289.675 40.0006L259.44 49.8642L270.882 84.9356L301.117 75.072ZM370.531 404.237L382.25 440.155L412.485 430.29L400.766 394.372L370.531 404.237ZM525.633 317.934L535.71 287.769L500.72 276.081L490.643 306.246L525.633 317.934ZM387.708 189.814L365.141 212.224C380.896 228.09 380.805 253.814 364.939 269.569L387.349 292.136C415.658 264.025 415.82 218.124 387.708 189.814ZM432.246 337.189L432.248 337.191L431.602 337.83C392.672 376.132 355.042 381.13 321.82 385.544C294.033 389.235 272.086 392.151 251.262 412.83L221.593 442.291C202.927 460.826 172.662 460.72 154.127 442.054L132.714 420.489C114.179 401.824 114.285 371.559 132.951 353.024L162.619 323.563C183.444 302.884 186.514 280.958 190.4 253.199C195.047 220.007 200.309 182.413 238.884 143.753L238.882 143.752L239.53 143.114C293.087 90.6234 379.363 91.1389 432.283 144.431C485.202 197.723 485.111 284.001 432.246 337.189ZM199.183 419.723L221.186 397.874L177.363 353.742L155.359 375.591C149.138 381.769 149.102 391.858 155.28 398.079L176.694 419.644C182.873 425.866 192.961 425.902 199.183 419.723ZM409.481 314.978C450.26 274.177 450.397 207.809 409.715 166.841C369.033 125.872 302.666 125.543 261.58 166.035C230.349 197.238 226.243 226.565 221.897 257.608C218.524 281.694 215.059 306.446 198.629 330.022L245.055 376.776C268.746 360.511 293.522 357.221 317.631 354.018C348.703 349.889 378.059 345.989 409.481 314.978ZM464.736 348.63L442.169 371.039L467.379 396.428L489.947 374.018L464.736 348.63Z" fill="#5278FF"/>
</g>
<defs>
<clipPath id="clip0_123_2077">
<rect width="407.086" height="407.086" fill="white" transform="translate(288.862) rotate(45.2012)"/>
</clipPath>
</defs>
</svg>
