<svg width="447" height="447" viewBox="0 0 447 447" fill="none" xmlns="http://www.w3.org/2000/svg">
<rect width="447" height="447" rx="223.5" fill="#325FFF"/>
<rect x="135" y="189.108" width="140" height="32" rx="16" transform="rotate(-46.2364 135 189.108)" fill="white"/>
<path d="M124.96 337.223C116.146 337.223 108.909 330.056 109.872 321.294C112.988 292.953 124.356 266.413 142.39 246.006C163.769 221.814 192.765 208.223 223 208.223C253.235 208.223 282.231 221.814 303.61 246.006C321.644 266.413 333.012 292.953 336.128 321.294C337.091 330.056 329.854 337.223 321.04 337.223V337.223C312.226 337.223 305.207 330.036 303.869 321.324C300.993 302.592 293.079 285.171 281.039 271.547C265.646 254.128 244.769 244.343 223 244.343C201.231 244.343 180.354 254.128 164.961 271.547C152.92 285.171 145.007 302.593 142.131 321.324C140.793 330.036 133.774 337.223 124.96 337.223V337.223Z" fill="#FBFBFB"/>
</svg>
