<svg width="40" height="95" viewBox="0 0 40 95" fill="none" xmlns="http://www.w3.org/2000/svg">
<path opacity="0.5" d="M30.2369 94.3824C27.7304 94.3824 25.6715 93.5958 24.0601 92.0228C22.4488 90.4498 21.6431 88.4947 21.6431 86.1576V18.2023L23.523 21.1686L13.3178 27.3709C11.975 28.1799 10.5427 28.5844 9.02085 28.5844C6.69335 28.5844 4.76868 27.708 3.24686 25.9551C1.72503 24.2023 0.964111 22.3372 0.964111 20.3596C0.964111 17.3034 2.35166 14.9664 5.12676 13.3484L25.4029 1.21349C26.9247 0.404501 28.8494 0 31.1769 0C33.5044 0 35.4067 0.786523 36.8837 2.35957C38.3608 3.93261 39.0994 5.88767 39.0994 8.22474V86.1576C39.0994 88.4947 38.2713 90.4498 36.6152 92.0228C34.9591 93.5958 32.833 94.3824 30.2369 94.3824Z" fill="url(#paint0_linear_123_2072)"/>
<defs>
<linearGradient id="paint0_linear_123_2072" x1="-2.50744" y1="-1.88765e-05" x2="-2.50754" y2="111.566" gradientUnits="userSpaceOnUse">
<stop stop-color="#ABAFC7"/>
<stop offset="1" stop-color="white" stop-opacity="0.01"/>
</linearGradient>
</defs>
</svg>
