<svg width="153" height="38" viewBox="0 0 153 38" fill="none" xmlns="http://www.w3.org/2000/svg">
<g clip-path="url(#clip0_123_2140)">
<path d="M90.0696 15.047V15.0596C89.9935 15.0596 89.917 15.0722 89.841 15.0722C89.7649 15.0722 89.6884 15.0596 89.6124 15.0596C85.0786 15.0596 82.2719 17.892 82.2719 22.4384V24.6735C82.2719 29.0548 85.1168 31.7728 89.6758 31.7728C89.7692 31.7752 89.8625 31.771 89.9553 31.7602C90.0187 31.7602 90.0696 31.7728 90.133 31.7728C93.1935 31.7728 95.3274 30.6554 96.686 28.3438L93.981 26.7814C93.0792 28.1147 91.8727 29.1182 90.1456 29.1182C87.8344 29.1182 86.4502 27.6958 86.4502 25.2954V24.6605H97.1688V22.019C97.1688 17.7772 94.3878 15.047 90.0696 15.047ZM89.841 17.6508C91.9492 17.7525 93.2192 19.1493 93.2192 21.4479V22.0829H86.4376V21.7143C86.4376 19.1745 87.6441 17.7525 89.841 17.6508ZM73.1917 15.0596C71.1725 15.0596 69.4328 15.898 68.5184 17.2948L68.2898 17.6503V15.4403H64.4544V36.8907H68.4801V29.3981L68.7088 29.741C69.5723 31.0236 71.2616 31.7854 73.2299 31.7854H73.3317H73.4203C76.735 31.7854 80.075 29.6263 80.075 24.7878V22.0703C80.075 18.5904 78.0175 15.0727 73.3947 15.0727L73.3695 15.0601H73.2808L73.1917 15.0596ZM72.2521 18.0823C74.589 18.1206 76.0366 19.7077 76.0366 22.248V24.5844C76.0366 27.1243 74.5759 28.6993 72.2138 28.7501C70.0169 28.7119 68.4801 27.0356 68.4801 24.6479V22.2476C68.4801 19.8346 70.0295 18.1332 72.2521 18.0823ZM124.423 9.76398L116.676 31.4047H121.032L122.518 26.7692H130.976V26.8201L132.462 31.4173H136.818L129.058 9.77658H128.601L128.589 9.76398H124.423ZM126.735 13.4851L129.973 23.7087H123.47L126.735 13.4851ZM152.401 12.8119V9.76398H139.116V12.8119H143.777V28.3312H139.116V31.3791H152.401V28.3312H147.74V12.8119H152.401ZM108.688 15.0601H108.573H108.51C106.262 15.0601 104.662 15.8219 103.874 17.2827L103.633 17.7273V15.4412H99.7978V31.3921H103.824V21.8925C103.824 19.6573 105.03 18.3748 107.113 18.3366C109.107 18.3748 110.25 19.6321 110.25 21.8039V31.3921H114.275V21.1176C114.275 17.3205 112.193 15.0596 108.7 15.0596L108.688 15.0601ZM51.5127 9.31938C45.5817 9.31938 41.8862 13.0153 41.8862 18.9715V22.1846C41.8862 28.1408 45.5691 31.8363 51.5127 31.8363H51.6018H51.6905C57.6215 31.8363 61.317 28.1408 61.317 22.1846V18.9715C61.317 13.0153 57.6215 9.31938 51.6905 9.31938H51.6018H51.5127ZM51.6018 12.5455C55.1326 12.5837 57.1643 14.8441 57.1643 18.7555V22.4132C57.1643 26.3246 55.1326 28.5854 51.6018 28.6232C48.0711 28.585 46.0389 26.3246 46.0389 22.4132V18.7555C46.0389 14.8441 48.0711 12.5833 51.6018 12.5455ZM16.5375 0.455186C12.4352 0.455186 8.79064 3.09671 7.52028 6.99555C6.21659 7.26429 4.98508 7.8076 3.90771 8.58934C2.83035 9.37109 1.93183 10.3733 1.27197 11.5294C-0.785455 15.0853 -0.31565 19.5556 2.44063 22.6035C1.58967 25.1564 1.88172 27.95 3.24074 30.2617C5.28556 33.8302 9.39995 35.659 13.4261 34.8081C14.3077 35.803 15.3912 36.5985 16.6044 37.1416C17.8176 37.6847 19.1327 37.9629 20.462 37.9577C24.5642 37.9577 28.2088 35.3161 29.4792 31.4173C32.1207 30.871 34.3941 29.2199 35.7149 26.8835C37.7849 23.3276 37.3151 18.8572 34.5593 15.8093V15.7967C34.9796 14.5349 35.1257 13.1978 34.9877 11.8749C34.8497 10.5521 34.4309 9.27392 33.7592 8.12597C31.7139 4.57003 27.599 2.74076 23.5859 3.59172C22.7003 2.59942 21.6139 1.80663 20.3988 1.2659C19.1837 0.725165 17.8675 0.448824 16.5375 0.455186ZM16.5375 2.89376L16.5249 2.90636C18.1759 2.90636 19.7636 3.47787 21.0335 4.53223C20.9826 4.55743 20.8809 4.62088 20.8049 4.65913L13.3375 8.96432C12.9563 9.18033 12.7277 9.58668 12.7277 10.0313V20.1402L9.5147 18.2862V9.92958C9.51398 8.06557 10.2532 6.27749 11.57 4.95817C12.8868 3.63884 14.6735 2.89662 16.5375 2.89376ZM25.5331 5.83679C26.7705 5.83441 27.9867 6.15877 29.0586 6.77707C30.1306 7.39537 31.0203 8.28571 31.6378 9.35808C32.4505 10.7805 32.7552 12.4442 32.4757 14.057C32.4249 14.0188 32.3236 13.9684 32.2597 13.9301L24.7924 9.61188C24.6045 9.50564 24.3923 9.4498 24.1765 9.4498C23.9607 9.4498 23.7486 9.50564 23.5607 9.61188L14.8104 14.6663V10.9578L22.0365 6.77955C23.099 6.16357 24.305 5.83826 25.5331 5.83634V5.83679ZM7.06353 9.67533V18.5526C7.06353 18.9972 7.29213 19.3909 7.67328 19.6195L16.4106 24.6614L13.1845 26.528L5.97091 22.3623C4.35884 21.428 3.18334 19.8923 2.70244 18.0922C2.22153 16.2921 2.47453 14.3748 3.40589 12.761C4.22749 11.3369 5.52145 10.2456 7.06353 9.67533ZM23.8019 11.8723L31.0281 16.0379C34.3937 17.9811 35.5362 22.2737 33.5931 25.6392L33.6057 25.6518C32.7804 27.0743 31.4848 28.1665 29.9481 28.7254V19.8477C29.9481 19.4031 29.7195 18.9967 29.3383 18.7812L20.5884 13.7263L23.8019 11.8723ZM18.4932 14.9332L22.1765 17.0667V21.321L18.4932 23.4545L14.8104 21.321V17.0667L18.4932 14.9332ZM24.2843 18.2862L27.4973 20.1402V28.4842C27.4973 32.3704 24.3478 35.52 20.4746 35.52V35.5074C18.8361 35.5074 17.2359 34.9359 15.9786 33.882C16.0294 33.8568 16.1437 33.7929 16.2072 33.7546L23.6745 29.4494C24.0557 29.2334 24.2969 28.8271 24.2839 28.3825L24.2843 18.2862ZM22.1886 23.747V27.455L14.9625 31.6207C11.5969 33.5512 7.30428 32.4082 5.36116 29.0552H5.37376C4.54845 27.6454 4.25595 25.9691 4.5354 24.3563C4.58625 24.3945 4.68795 24.4449 4.7514 24.4832L12.2188 28.8014C12.4066 28.9077 12.6188 28.9635 12.8346 28.9635C13.0504 28.9635 13.2626 28.9077 13.4504 28.8014L22.1886 23.747Z" fill="#0F0F0F"/>
</g>
<defs>
<clipPath id="clip0_123_2140">
<rect width="152.402" height="37.503" fill="white" transform="translate(0 0.455078)"/>
</clipPath>
</defs>
</svg>
