<svg width="34" height="30" viewBox="0 0 34 30" fill="none" xmlns="http://www.w3.org/2000/svg">
<g clip-path="url(#clip0_123_2119)">
<path d="M25.1777 9.58886C24.5787 9.24655 23.8085 9.24655 23.1239 9.58886L18.3315 12.4129L15.0796 14.21L10.3729 17.0341C9.77384 17.3764 9.00364 17.3764 8.31903 17.0341L4.63921 14.8091C4.04017 14.4668 3.61228 13.7821 3.61228 13.0119V8.73309C3.61228 8.04847 3.95459 7.36385 4.63921 6.93597L8.31903 4.79654C8.91807 4.45423 9.68826 4.45423 10.3729 4.79654L14.0527 7.02154C14.6517 7.36385 15.0796 8.04847 15.0796 8.81866V11.6427L18.3315 9.76001V6.85039C18.3315 6.16577 17.9892 5.48116 17.3046 5.05327L10.4585 1.03115C9.85941 0.688837 9.08922 0.688837 8.4046 1.03115L1.38728 5.13885C0.70266 5.48116 0.360352 6.16577 0.360352 6.85039V14.8946C0.360352 15.5793 0.70266 16.2639 1.38728 16.6918L8.31903 20.7139C8.91807 21.0562 9.68826 21.0562 10.3729 20.7139L15.0796 17.9754L18.3315 16.0927L23.0383 13.3543C23.6373 13.0119 24.4075 13.0119 25.0921 13.3543L28.772 15.4937C29.371 15.836 29.7989 16.5206 29.7989 17.2908V21.5697C29.7989 22.2543 29.4566 22.9389 28.772 23.3668L25.1777 25.5062C24.5787 25.8485 23.8085 25.8485 23.1239 25.5062L19.4441 23.3668C18.845 23.0245 18.4171 22.3399 18.4171 21.5697V18.8312L15.1652 20.7139V23.5379C15.1652 24.2225 15.5075 24.9072 16.1921 25.3351L23.1239 29.3572C23.7229 29.6995 24.4931 29.6995 25.1777 29.3572L32.1095 25.3351C32.7085 24.9927 33.1364 24.3081 33.1364 23.5379V15.4081C33.1364 14.7235 32.7941 14.0389 32.1095 13.611L25.1777 9.58886Z" fill="#8247E5"/>
</g>
<defs>
<clipPath id="clip0_123_2119">
<rect width="32.8616" height="28.6683" fill="white" transform="translate(0.359375 0.860352)"/>
</clipPath>
</defs>
</svg>
