<svg width="20" height="22" viewBox="0 0 20 22" fill="none" xmlns="http://www.w3.org/2000/svg">
<path d="M13.9375 8.08996L5.3125 3.11621" stroke="#636299" stroke-width="2" stroke-linecap="round" stroke-linejoin="round"/>
<path d="M18.25 14.4147V6.74803C18.2497 6.41192 18.1609 6.08181 17.9927 5.79082C17.8245 5.49982 17.5827 5.25817 17.2917 5.09012L10.5833 1.25678C10.292 1.08856 9.96145 1 9.625 1C9.28855 1 8.95804 1.08856 8.66667 1.25678L1.95833 5.09012C1.66725 5.25817 1.42548 5.49982 1.25728 5.79082C1.08907 6.08181 1.00034 6.41192 1 6.74803V14.4147C1.00034 14.7508 1.08907 15.0809 1.25728 15.3719C1.42548 15.6629 1.66725 15.9046 1.95833 16.0726L8.66667 19.906C8.95804 20.0742 9.28855 20.1627 9.625 20.1627C9.96145 20.1627 10.292 20.0742 10.5833 19.906L17.2917 16.0726C17.5827 15.9046 17.8245 15.6629 17.9927 15.3719C18.1609 15.0809 18.2497 14.7508 18.25 14.4147Z" stroke="#636299" stroke-width="2" stroke-linecap="round" stroke-linejoin="round"/>
<path d="M1.25781 5.75098L9.62406 10.5906L17.9903 5.75098" stroke="#636299" stroke-width="2" stroke-linecap="round" stroke-linejoin="round"/>
<path d="M9.625 20.2411V10.5811" stroke="#636299" stroke-width="2" stroke-linecap="round" stroke-linejoin="round"/>
</svg>
