<svg width="59" height="93" viewBox="0 0 59 93" fill="none" xmlns="http://www.w3.org/2000/svg">
<path opacity="0.5" d="M9.835 72.5336C10.6103 72.5336 11.4503 72.6634 12.3549 72.9229C13.2594 73.1824 14.2717 73.7014 15.3916 74.4799C16.8562 75.6045 18.6007 76.5993 20.6252 77.4643C22.6497 78.3294 24.9973 78.7619 27.6679 78.7619C30.3385 78.7619 32.8584 78.0915 35.2275 76.7507C37.5966 75.4099 39.5565 73.5068 41.1072 71.0414C42.6579 68.5761 43.4332 65.6133 43.4332 62.1531C43.4332 58.866 42.7656 56.1411 41.4303 53.9785C40.0949 51.8159 38.3289 50.1723 36.1321 49.0478C33.9353 47.9232 31.5877 47.361 29.0894 47.361C27.1941 47.361 25.6219 47.5339 24.3727 47.88C23.1235 48.226 21.9174 48.5936 20.7544 48.9829C19.5914 49.3722 18.2346 49.5668 16.6839 49.5668C14.7024 49.5668 13.1733 48.8748 12.0964 47.4907C11.0196 46.1066 10.4811 44.4631 10.4811 42.56C10.4811 41.3489 10.718 40.2676 11.1919 39.3161C11.6657 38.3645 12.3764 37.3265 13.3241 36.2019L36.0675 11.2888L39.5565 14.2732H7.76742C5.69984 14.2732 3.97685 13.5811 2.59847 12.1971C1.22008 10.813 0.530884 9.08292 0.530884 7.00683C0.530884 5.01724 1.22008 3.35204 2.59847 2.01122C3.97685 0.670406 5.69984 6.66229e-06 7.76742 0H47.3099C49.9806 0 51.9835 0.735284 53.3189 2.20586C54.6542 3.67644 55.3218 5.53627 55.3218 7.78536C55.3218 8.90991 55.0418 9.99122 54.4819 11.0293C53.9219 12.0673 53.1681 13.0621 52.2204 14.0137L29.3478 39.3161L25.8588 34.9044C26.8064 34.4718 28.1202 34.0826 29.8001 33.7366C31.48 33.3905 32.8799 33.2175 33.9999 33.2175C39.0827 33.2175 43.4978 34.5367 47.2453 37.1751C50.9928 39.8135 53.8788 43.2304 55.9033 47.4258C57.9278 51.6213 58.9401 56.1411 58.9401 60.9853C58.9401 67.3866 57.5186 72.9229 54.6757 77.5941C51.8328 82.2653 47.8268 85.8552 42.6579 88.3638C37.4889 90.8725 31.4585 92.1268 24.5665 92.1268C21.379 92.1268 18.2346 91.7375 15.1332 90.959C12.0318 90.1804 9.36118 89.1424 7.1213 87.8448C5.22602 86.8068 3.95532 85.6606 3.3092 84.4063C2.66308 83.152 2.34002 81.9626 2.34002 80.838C2.34002 78.8484 3.05075 76.9669 4.47221 75.1936C5.89368 73.4203 7.68127 72.5336 9.835 72.5336Z" fill="url(#paint0_linear_123_2058)"/>
<defs>
<linearGradient id="paint0_linear_123_2058" x1="-8.45255" y1="0" x2="-8.45255" y2="120.465" gradientUnits="userSpaceOnUse">
<stop stop-color="#636299"/>
<stop offset="1" stop-color="white" stop-opacity="0.01"/>
</linearGradient>
</defs>
</svg>
