<svg width="60" height="93" viewBox="0 0 60 93" fill="none" xmlns="http://www.w3.org/2000/svg">
<path opacity="0.5" d="M52.4997 78.0719C54.5673 78.0719 56.2903 78.7639 57.6687 80.148C59.0471 81.532 59.7363 83.2621 59.7363 85.3382C59.7363 87.3278 59.0471 88.993 57.6687 90.3338C56.2903 91.6746 54.5673 92.345 52.4997 92.345H8.56359C6.32371 92.345 4.55765 91.653 3.26541 90.2689C1.97317 88.8849 1.32705 87.1115 1.32705 84.9489C1.32705 82.7863 2.1024 80.8833 3.65308 79.2397L31.8239 49.0065C34.9253 45.6329 37.4236 42.1943 39.3189 38.6909C41.2142 35.1875 42.1618 31.922 42.1618 28.8943C42.1618 26.2127 41.5157 23.7906 40.2234 21.628C38.9312 19.4654 37.2513 17.7353 35.1837 16.4378C33.1161 15.1402 30.8763 14.4914 28.4641 14.4914C25.9657 14.4914 23.4243 15.3348 20.8399 17.0217C18.2554 18.7085 15.9724 20.936 13.991 23.7041C12.9572 25.0882 11.9234 25.9532 10.8896 26.2992C9.85583 26.6452 8.90819 26.8183 8.0467 26.8183C6.15141 26.8183 4.40689 26.1046 2.81313 24.6773C1.21937 23.25 0.422485 21.5848 0.422485 19.6817C0.422485 18.2111 0.917843 16.7838 1.90856 15.3997C2.89928 14.0157 4.1269 12.5883 5.59144 11.1178C8.86511 7.83062 12.6557 5.19225 16.9631 3.20265C21.2706 1.21306 25.4058 0.218268 29.3686 0.218262C35.2268 0.218262 40.2665 1.42931 44.4878 3.85143C48.7091 6.27354 51.9828 9.60395 54.3089 13.8426C56.6349 18.0814 57.7979 22.8823 57.7979 28.2456C57.7979 31.8787 57.1302 35.5768 55.7949 39.3397C54.4596 43.1026 52.6289 46.7574 50.3029 50.3041C47.9769 53.8508 45.3063 57.2677 42.291 60.5548L24.8458 79.2397L23.4243 78.0719H52.4997Z" fill="url(#paint0_linear_123_2064)"/>
<defs>
<linearGradient id="paint0_linear_123_2064" x1="-3.55009" y1="0.218259" x2="-3.55009" y2="104.686" gradientUnits="userSpaceOnUse">
<stop stop-color="#ABAFC7"/>
<stop offset="1" stop-color="white" stop-opacity="0.01"/>
</linearGradient>
</defs>
</svg>
